<svg xmlns="http://www.w3.org/2000/svg"><style>:root svg:not(:target){display:none}</style><svg fill="none" id="android-logo" viewBox="0 0 43 47"><path d="M34.886 14.062H8.114v19.133c-.011.913.332 1.795.96 2.468a3.697 3.697 0 0 0 2.422 1.159v7.453c.044.737.374 1.43.922 1.936a2.986 2.986 0 0 0 2.026.789c.753 0 1.478-.282 2.026-.789.548-.506.878-1.199.922-1.936v-7.433h8.236v7.433c.045.737.375 1.43.922 1.936a2.985 2.985 0 0 0 2.026.789c.754 0 1.478-.282 2.026-.789.548-.506.878-1.199.922-1.936v-7.453a3.707 3.707 0 0 0 2.426-1.158c.63-.673.975-1.555.967-2.468V14.402l-.03-.34ZM2.953 15.745c.78 0 1.53.304 2.081.845.552.54.862 1.275.862 2.04v12.402c.001.38-.074.756-.22 1.107a2.88 2.88 0 0 1-.638.94 2.947 2.947 0 0 1-.956.627 2.995 2.995 0 0 1-3.217-.627A2.866 2.866 0 0 1 0 31.032V18.63c0-.38.076-.756.225-1.107.149-.35.366-.669.64-.937.275-.268.6-.48.959-.625a2.995 2.995 0 0 1 1.13-.216ZM40.057 15.745c.78 0 1.53.304 2.081.845.552.54.862 1.275.862 2.04v12.402c.001.38-.074.756-.221 1.107-.147.351-.364.67-.637.94a2.947 2.947 0 0 1-.956.627 2.994 2.994 0 0 1-3.217-.627 2.867 2.867 0 0 1-.865-2.047V18.63c0-.38.076-.756.225-1.107.148-.35.366-.669.64-.937.275-.268.6-.48.959-.625a2.995 2.995 0 0 1 1.129-.216ZM8.175 12.058h26.568a10.404 10.404 0 0 0-3.26-7.293L34.049.498a.307.307 0 0 0-.122-.461.322.322 0 0 0-.42.11l-2.42 4.157A16.708 16.708 0 0 0 21.458.898a16.977 16.977 0 0 0-9.575 3.406L9.504.187a.325.325 0 0 0-.184-.16.333.333 0 0 0-.246.01.315.315 0 0 0-.112.42l2.493 4.238a10.443 10.443 0 0 0-3.28 7.363Zm17.699-5.21c0-.398.161-.78.449-1.062.287-.281.677-.44 1.083-.44.407 0 .797.159 1.084.44.288.282.45.664.45 1.063 0 .398-.162.78-.45 1.062-.287.282-.677.44-1.084.44-.406 0-.796-.158-1.083-.44a1.488 1.488 0 0 1-.45-1.062Zm-11.384 0c0-.398.162-.78.449-1.062.287-.281.677-.44 1.084-.44.406 0 .796.159 1.084.44.287.282.449.664.449 1.063 0 .398-.162.78-.45 1.062-.287.282-.677.44-1.083.44-.407 0-.797-.158-1.084-.44a1.488 1.488 0 0 1-.449-1.062Z" fill="#A4C639"></path></svg><svg fill="none" id="apple-logo" viewBox="0 0 47 56"><path d="M39.245 29.74a12.09 12.09 0 0 0 2.127 6.787A12.668 12.668 0 0 0 47 41.063a29.794 29.794 0 0 1-4 7.96c-2.401 3.413-4.905 6.816-8.844 6.904-3.938.09-5.088-2.219-9.526-2.219-4.437 0-5.8 2.15-9.465 2.288-3.663.139-6.686-3.718-9.088-7.111-4.956-6.905-8.752-19.639-3.664-28.2a13.925 13.925 0 0 1 5.024-5.037 14.489 14.489 0 0 1 6.935-1.977c3.724-.069 7.246 2.427 9.526 2.427 2.28 0 6.564-3.009 11.062-2.565 2.084.073 4.121.613 5.954 1.576a13.387 13.387 0 0 1 4.61 3.977c-.275.168-6.31 3.571-6.249 10.653h-.03ZM31.978 8.936C34.16 6.46 35.238 3.247 34.981 0c-3.305.302-6.364 1.82-8.55 4.241-1.862 2.092-3.5 5.445-3.053 8.66 3.247.247 6.555-1.597 8.57-3.945" fill="#fff"></path></svg><svg fill="none" id="contrast" viewBox="0 0 16 16"><path d="M8 2a6 6 0 1 1 0 12A6 6 0 0 1 8 2Zm0-2a8 8 0 1 0 0 16A8 8 0 0 0 8 0Z" fill="#D22856"></path><path d="M8 12.145a4.26 4.26 0 0 0 0-8.5" fill="#D22856"></path></svg><svg fill="none" id="crop" viewBox="0 0 22 22"><path d="M16 14h2V6a2 2 0 0 0-2-2H8v2h8v8ZM6 16V0H4v4H0v2h4v10a2 2 0 0 0 2 2h10v4h2v-4h4v-2H6Z" fill="#D22856"></path></svg><svg fill="none" id="facebook" viewBox="0 0 9 18"><path d="M6.509 3.193H9V0H6.02C2.762.171 1.6 2.271 2.077 5.816H0v3.336h2.076V18h3.945V9.152h2.958V5.816H6.01c-.02-.998-.041-2.29.499-2.623Z" fill="#D22856"></path></svg><svg fill="none" id="fill" viewBox="0 0 24 22"><path d="M16.56 9.148 7.62 0 6.205 1.448l2.38 2.435L3.44 9.148c-.28.288-.439.678-.439 1.085 0 .406.158.796.439 1.084l5.5 5.628c.281.288.662.449 1.06.449s.779-.161 1.06-.449l5.5-5.628c.28-.288.439-.678.439-1.084 0-.407-.158-.797-.439-1.085ZM5.205 10.233 10 5.33l4.795 4.902h-9.59ZM19 11.767s-2 2.216-2 3.582c0 .543.21 1.063.586 1.447.375.384.884.6 1.414.6.53 0 1.04-.216 1.414-.6A2.07 2.07 0 0 0 21 15.349c0-1.366-2-3.582-2-3.582ZM24 20.465H0V22h24v-1.535Z" fill="#D22856"></path></svg><svg fill="none" id="heart" viewBox="0 0 13 12"><path d="M6.469 12a.782.782 0 0 1-.58-.25C1.958 7.42 1.036 6.44.86 6.17A3.765 3.765 0 0 1 0 3.8a3.723 3.723 0 0 1 .63-2.045A3.921 3.921 0 0 1 2.3.355 4.09 4.09 0 0 1 4.487.035 4.031 4.031 0 0 1 6.51.9 4.08 4.08 0 0 1 9.07 0a4.013 4.013 0 0 1 2.78 1.117A3.733 3.733 0 0 1 13 3.8a3.409 3.409 0 0 1-.923 2.38l-5.038 5.56a.757.757 0 0 1-.57.25V12ZM2.073 5.28c.218.26 2.56 2.84 4.396 4.86l4.478-4.94a1.96 1.96 0 0 0 .539-1.4c0-.618-.254-1.21-.707-1.648A2.461 2.461 0 0 0 9.07 1.47c-.38.003-.756.09-1.097.252-.341.163-.64.398-.873.688a.844.844 0 0 1-.612.28.757.757 0 0 1-.332-.082.729.729 0 0 1-.258-.218 2.43 2.43 0 0 0-.868-.682 2.49 2.49 0 0 0-2.372.132 2.369 2.369 0 0 0-.882.968 2.267 2.267 0 0 0 .296 2.462v.01Z" fill="#D22856"></path></svg><svg fill="none" id="mail-icon" viewBox="0 0 18 13"><path d="M14.91 1.68c1.2-.928.91-1.68-.65-1.68H3.73c-1.56 0-1.85.761-.66 1.68l3.75 2.898c.621.45 1.387.696 2.175.696.788 0 1.554-.245 2.175-.696l3.74-2.897Z" fill="#D22856"></path><path d="M11.91 6.5 9.7 8.246a1.13 1.13 0 0 1-.26.111l-.1.047c-.109.042-.223.07-.34.083l-.33-.056-.12-.074a1.184 1.184 0 0 1-.24-.13L6.08 6.5l-3.9-2.971C1 2.6 0 3.027 0 4.476v5.859c-.003.347.069.692.21 1.014.14.322.348.615.61.863.263.247.576.444.92.58A3.04 3.04 0 0 0 2.83 13h12.32c.376 0 .748-.07 1.095-.203.347-.134.662-.331.927-.579.265-.247.475-.541.617-.865.142-.323.214-.669.211-1.018v-5.86c0-1.448-1-1.856-2.18-.928L11.91 6.5Z" fill="#D22856"></path></svg><svg fill="none" id="microsoft-logo" viewBox="0 0 44 41"><path d="M20.908 19.524H0V0h20.908v19.524Z" fill="#F05423"></path><path d="M44 19.524H23.092V0H44v19.524Z" fill="#84C441"></path><path d="M20.908 41H0V21.476h20.908V41Z" fill="#2DABE2"></path><path d="M44 41H23.092V21.476H44V41Z" fill="#F9BC15"></path></svg><svg fill="none" id="no-svg" viewBox="0 0 27 27"><path d="m15.644 13.507 10.91-10.92a1.503 1.503 0 0 0 0-2.14 1.524 1.524 0 0 0-2.14 0l-10.909 10.92L2.586.447a1.504 1.504 0 0 0-2.14 0 1.524 1.524 0 0 0 0 2.14l10.92 10.92-10.92 10.91a1.503 1.503 0 0 0 0 2.139 1.514 1.514 0 0 0 2.14 0l10.919-10.91 10.909 10.91a1.514 1.514 0 0 0 2.14-2.14l-10.91-10.91Z" fill="#F25B26"></path></svg><svg fill="none" id="phone-icon" viewBox="0 0 20 19"><path d="M10.04 0C6.465 0 2.908.608 1.583 1.815a6.392 6.392 0 0 0-1.58 3.892c-.003.055-.003.11 0 .164 0 .21.088.412.245.56a.86.86 0 0 0 .591.232l3.24-.25h.082a.865.865 0 0 0 .581-.237.78.78 0 0 0 .176-.256.746.746 0 0 0 .059-.3V4.046a.83.83 0 0 1 .067-.335.867.867 0 0 1 .198-.286.922.922 0 0 1 .299-.19.961.961 0 0 1 .353-.068h8.153c.246 0 .482.093.656.258a.856.856 0 0 1 .271.621v1.555a.77.77 0 0 0 .238.553c.152.148.36.234.578.239h.091l3.282.251a.876.876 0 0 0 .59-.232.79.79 0 0 0 .182-.257.756.756 0 0 0 .064-.303 1.45 1.45 0 0 0 0-.164 6.455 6.455 0 0 0-1.56-3.863C17.195.608 13.618 0 10.041 0Zm0 10.304c-.33 0-.653.093-.928.267-.275.174-.489.421-.615.71-.127.29-.16.608-.095.916.064.307.223.59.457.81.234.222.531.373.856.434.324.061.66.03.965-.09.306-.12.567-.323.75-.583a1.526 1.526 0 0 0-.204-2.003 1.669 1.669 0 0 0-.544-.343 1.742 1.742 0 0 0-.641-.118ZM8.788 6.76v-.966a.94.94 0 0 0-.298-.683 1.048 1.048 0 0 0-.72-.283c-.271 0-.53.102-.722.283a.94.94 0 0 0-.298.683v.966l-5.728 5.688a1.932 1.932 0 0 0-.471.647 1.843 1.843 0 0 0-.16.772v1.584c0 .421.175.825.488 1.123a1.73 1.73 0 0 0 1.183.47h.418v.966c0 .13.027.259.08.379.052.12.129.23.226.321.097.092.212.165.339.215a1.096 1.096 0 0 0 1.138-.215.988.988 0 0 0 .227-.321.945.945 0 0 0 .079-.379v-.966h10.905v.966c0 .263.11.514.306.7.196.186.461.29.738.29.277 0 .543-.104.739-.29a.964.964 0 0 0 .306-.7v-.966h.418c.22 0 .438-.04.642-.121.203-.08.388-.198.543-.346a1.58 1.58 0 0 0 .362-.517c.083-.193.125-.4.124-.609v-1.584a1.844 1.844 0 0 0-.155-.77 1.933 1.933 0 0 0-.466-.65L13.382 6.76v-.966a.964.964 0 0 0-.305-.7 1.075 1.075 0 0 0-.74-.29c-.276 0-.542.105-.738.29a.964.964 0 0 0-.306.7v.966H8.787Zm1.254 1.931c.66 0 1.307.186 1.857.534.55.348.978.843 1.231 1.422.253.578.32 1.215.19 1.83a3.12 3.12 0 0 1-.915 1.621 3.403 3.403 0 0 1-1.711.867c-.649.123-1.32.06-1.931-.18a3.312 3.312 0 0 1-1.5-1.167 3.05 3.05 0 0 1-.564-1.76c0-.84.352-1.645.98-2.239a3.439 3.439 0 0 1 2.363-.928Z" fill="#D22856"></path></svg><svg fill="none" id="twitter" viewBox="0 0 18 14"><path d="M11.564.169A3.675 3.675 0 0 1 13.672.14c.688.196 1.291.59 1.723 1.122.71-.21 1.41-.447 2.131-.656a2.03 2.03 0 0 1-.253.917c-.157.284-.38.533-.653.729.253.026.508-.002.747-.081.24-.08.456-.208.633-.376-.099.414-.3.801-.588 1.131-.287.33-.653.594-1.07.772-.247 6.27-3.367 10.467-10.689 10.296H5.15c-.443 0-4.418-.428-5.149-1.75 1.752.245 3.539-.147 4.984-1.095-1.03-.286-2.852-.447-3.161-2.74.388.133.81.163 1.215.085C1.76 7.705.34 7.039.422 4.993c.398.306.905.462 1.421.438C1.102 5.203-.247 2.31.896.825c1.926 1.723 3.964 3.35 7.59 3.512C8.711 2.205 9.69.777 11.563.169Z" fill="#D22856"></path></svg><svg fill="none" id="yes-svg" viewBox="0 0 31 21"><path d="M30.556.43a1.54 1.54 0 0 0-.499-.318 1.607 1.607 0 0 0-1.179 0 1.54 1.54 0 0 0-.499.318L10.374 17.496 2.578 10.11a1.582 1.582 0 0 0-1.072-.39 1.576 1.576 0 0 0-1.057.425c-.28.266-.442.625-.449 1.001-.007.377.14.74.411 1.016l8.88 8.412c.142.135.31.243.497.316a1.596 1.596 0 0 0 1.67-.316L30.556 2.482c.284-.274.444-.642.444-1.026S30.84.703 30.556.43Z" fill="#3DC644"></path></svg><svg fill="none" id="youtube" viewBox="0 0 15 13"><path d="M1.834 12.809a1.257 1.257 0 0 1-1.285.03 1.097 1.097 0 0 1-.443-.457.97.97 0 0 1-.092-.603V1.221A.97.97 0 0 1 .106.618C.2.429.355.27.549.16a1.256 1.256 0 0 1 1.285.031l12.4 5.502c1.022.445 1.022 1.169 0 1.614l-12.4 5.502Z" fill="#D22856"></path></svg></svg>